<svg width="192" height="214" viewBox="0 0 192 214" fill="none" xmlns="http://www.w3.org/2000/svg">
<path d="M50.0235 139.333L50.4653 139.198L50.0235 139.333C53.4688 150.587 57.6891 161.224 64.5331 170.651C79.2534 190.94 99.3948 206.334 125.598 211.94C95.2305 216.845 66.8277 208.545 43.5339 191.644L43.5338 191.644C30.4412 182.149 20.2768 169.419 12.5354 154.893L12.1215 155.113L12.5353 154.893C4.92659 140.623 1.55919 124.161 0.500557 106.968C0.872417 96.7175 1.94235 86.7208 4.86383 77.3844L4.86385 77.3843C7.67859 68.3846 11.3847 59.9086 16.3922 52.1849C23.8854 40.6395 32.6136 30.3619 43.555 22.3159L43.5552 22.3158C51.1887 16.6973 58.9496 11.824 67.784 8.37029C85.977 1.25774 105.203 -1.46902 125.648 1.99749C99.4161 7.57892 79.1725 22.9225 64.5134 43.2813L64.5134 43.2814C59.0162 50.9188 55.2987 59.3319 52.0397 68.2027C49.7449 74.4263 48.6479 80.9356 47.5299 87.5696L47.5241 87.6041L47.524 87.6046C46.4738 93.8747 45.9065 100.326 46.1412 106.968C45.4531 118.292 46.8989 129.119 50.0235 139.333Z" stroke="black"/>
<mask id="path-2-inside-1_10_13" fill="white">
<path fill-rule="evenodd" clip-rule="evenodd" d="M191 211.974C133.051 211.974 86.0004 164.923 86.0004 106.975C86.0004 49.0194 133.051 1.9751 191 1.9751"/>
</mask>
<path d="M191 210.974C133.603 210.974 87.0004 164.371 87.0004 106.975H85.0004C85.0004 165.476 132.499 212.974 191 212.974V210.974ZM87.0004 106.975C87.0004 49.5718 133.603 2.9751 191 2.9751V0.975098C132.499 0.975098 85.0004 48.4671 85.0004 106.975H87.0004Z" fill="black" mask="url(#path-2-inside-1_10_13)"/>
<path d="M191 2V211.999" stroke="black"/>
</svg>
