<?xml version="1.0" encoding="UTF-8"?>
<!DOCTYPE svg  PUBLIC '-//W3C//DTD SVG 1.1//EN'  'http://www.w3.org/Graphics/SVG/1.1/DTD/svg11.dtd'>
<svg clip-rule="evenodd" fill-rule="evenodd" stroke-linejoin="round" stroke-miterlimit="2" version="1.1" viewBox="0 0 813 79" xml:space="preserve" xmlns="http://www.w3.org/2000/svg">
    <g transform="matrix(1.8042 0 0 1.8042 -1908.2 -1402.7)" fill="#fff" fill-rule="nonzero">
        <path d="m1143.6 804.16h0.85c-0.39 1.448-0.82 2.653-1.29 3.613-0.48 0.96-1.13 1.961-1.96 3.003-3.3 4.069-7.72 6.104-13.25 6.104-3.49 0-6.73-0.81-9.74-2.43-3.02-1.619-5.41-3.8-7.18-6.543-1.78-2.742-2.66-5.7-2.66-8.874 0-1.888 0.35-3.764 1.05-5.628 0.7-1.863 1.72-3.605 3.06-5.224 1.34-1.62 2.9-3.007 4.68-4.163 2.68-1.758 5.78-2.636 9.3-2.636 1.17 0 2.28 0.101 3.33 0.305 1.05 0.203 2.04 0.529 2.98 0.976 0.93 0.448 1.9 1.038 2.89 1.77 1.11 0.765 1.92 1.148 2.44 1.148 1.16 0 2.61-1.205 4.35-3.614h0.85l0.71 16.407h-0.8c-0.28-1.188-0.55-2.157-0.8-2.906-0.25-0.748-0.59-1.53-1.01-2.343-1.12-2.295-2.45-4.265-3.98-5.909-1.53-1.643-3.2-2.897-5.01-3.759-1.8-0.863-3.66-1.294-5.56-1.294-2.28 0-4.14 0.606-5.57 1.819-1.43 1.212-2.49 3.1-3.18 5.664-0.7 2.563-1.04 5.822-1.04 9.777 0 2.279 0.12 4.297 0.36 6.055 0.25 1.758 0.63 3.243 1.14 4.456 0.51 1.212 1.16 2.225 1.94 3.039 0.96 0.977 2.13 1.721 3.5 2.234 1.38 0.513 2.88 0.769 4.51 0.769 1.51 0 2.96-0.195 4.36-0.586 1.39-0.39 2.69-0.972 3.9-1.745 1.22-0.773 2.33-1.73 3.33-2.869 0.82-0.944 1.48-1.892 1.98-2.844 0.51-0.952 1.01-2.21 1.52-3.772z"/>
        <path d="m1169.1 799.48h-7.66v9.546c0 2.084 0.51 3.638 1.53 4.663 1.03 1.026 2.59 1.538 4.67 1.538h1v0.953h-21.53v-0.953h0.92c2.1 0 3.66-0.508 4.68-1.525 1.02-1.018 1.52-2.576 1.52-4.676v-19.848c0-2.116-0.5-3.679-1.51-4.688s-2.57-1.514-4.69-1.514h-0.92v-0.903h26.44c3.58 0 6.41 0.261 8.49 0.781 2.09 0.521 3.74 1.4 4.96 2.637 0.7 0.7 1.26 1.53 1.67 2.49 0.42 0.961 0.62 1.913 0.62 2.857 0 2.571-1.33 4.638-4 6.201-0.99 0.537-2.34 1.017-4.05 1.44-1.71 0.424-3.41 0.708-5.11 0.855-1.28 0.097-3.24 0.146-5.88 0.146v0.098c1.3 0.846 2.48 1.546 3.54 2.1 1.06 0.553 2.12 1.021 3.2 1.403 1.07 0.383 2.29 0.729 3.66 1.038l0.81 1.221c0.53 0.781 0.93 1.367 1.19 1.758 0.26 0.39 0.56 0.838 0.91 1.342 0.91 1.384 1.77 2.584 2.6 3.601 0.82 1.018 1.5 1.73 2.03 2.137 1.06 0.699 2.58 1.049 4.55 1.049h0.95v0.953h-12.79l-11.8-16.7zm-7.66-0.903h9.71c2.3 0 4.18-0.281 5.66-0.842 1.47-0.562 2.57-1.416 3.29-2.564 0.73-1.147 1.09-2.624 1.09-4.431 0-5.176-3.3-7.764-9.89-7.764h-9.86v15.601z"/>
        <path d="m1193.1 782.07h36.27v13.208h-0.73c-0.67-2.311-1.26-4.04-1.79-5.188-0.53-1.147-1.22-2.234-2.07-3.259-1.02-1.221-2.14-2.092-3.34-2.612-2-0.831-4.44-1.246-7.3-1.246h-6.71v16.211h1.8c2.69 0 4.82-1.155 6.4-3.466 0.81-1.189 1.42-2.605 1.81-4.248 0.19-0.7 0.37-1.734 0.53-3.101h0.86v22.363h-0.86c-0.19-1.204-0.42-2.339-0.69-3.406-0.27-1.066-0.57-1.932-0.91-2.6-0.33-0.667-0.76-1.334-1.28-2.002-1.46-1.806-3.55-2.71-6.25-2.71h-1.41v15.259h5.61c1.66 0 3.15-0.118 4.48-0.354s2.52-0.602 3.58-1.098c1.06-0.497 2.05-1.144 2.98-1.941 1.59-1.351 2.83-3.036 3.71-5.054 0.5-1.156 1.03-2.718 1.58-4.688h0.91v14.039h-37.14l-0.04-0.904h0.92c4.14 0 6.2-2.083 6.2-6.25v-19.848c0-2.116-0.5-3.679-1.51-4.688s-2.57-1.514-4.69-1.514h-0.92v-0.903z"/>
        <path d="m1263.4 782.73h0.86v11.695h-0.86c-1.02-2.816-2.18-5.013-3.49-6.592-0.94-1.107-2.12-2.079-3.55-2.918-1.42-0.838-3.02-1.497-4.78-1.977-1.77-0.48-3.56-0.72-5.36-0.72-1.35 0-2.56 0.187-3.62 0.561-1.05 0.374-1.95 0.928-2.68 1.66-0.52 0.521-0.94 1.107-1.25 1.758s-0.46 1.278-0.46 1.88c0 1.139 0.44 2.124 1.32 2.954 0.4 0.407 0.99 0.798 1.74 1.172 0.76 0.374 1.74 0.74 2.93 1.099 1.2 0.358 2.87 0.797 5.02 1.318 0.59 0.179 0.99 0.285 1.2 0.317l1.19 0.293 1.91 0.489c3.22 0.83 5.57 1.562 7.05 2.197s2.75 1.473 3.79 2.514c0.81 0.765 1.44 1.661 1.89 2.686s0.67 2.132 0.67 3.32c0 1.172-0.25 2.348-0.76 3.528-0.5 1.18-1.22 2.218-2.14 3.113-1.21 1.237-2.69 2.165-4.46 2.783-1.77 0.619-3.78 0.928-6.04 0.928-1.58 0-3.07-0.159-4.46-0.476-1.39-0.318-3.09-0.899-5.09-1.746-1.3-0.521-2.29-0.875-2.98-1.062-0.68-0.187-1.32-0.281-1.93-0.281-1.15 0-2.13 0.306-2.94 0.916-0.8 0.61-1.34 1.477-1.6 2.6h-0.85v-15.771h0.85c0.34 2.799 1.48 5.338 3.4 7.617 1.15 1.334 2.63 2.575 4.43 3.723 1.8 1.147 3.68 2.038 5.65 2.673s3.84 0.952 5.61 0.952c1.58 0 3.03-0.26 4.34-0.781s2.33-1.245 3.06-2.173c0.73-0.927 1.1-1.977 1.1-3.149 0-1.237-0.5-2.352-1.49-3.345-0.45-0.439-1.04-0.846-1.77-1.221-0.72-0.374-1.66-0.756-2.81-1.147-1.14-0.391-2.72-0.854-4.72-1.392l-2.44-0.659c-3.81-1.025-6.45-1.823-7.91-2.392-1.65-0.603-2.94-1.205-3.87-1.807-0.94-0.602-1.75-1.367-2.43-2.295-1.01-1.302-1.51-2.734-1.51-4.297 0-1.888 0.56-3.585 1.68-5.09 1.12-1.506 2.69-2.682 4.71-3.528s4.26-1.269 6.72-1.269c3.71 0 7.56 1.033 11.54 3.1 1.4 0.7 2.36 1.05 2.86 1.05 1.27 0 2.18-0.936 2.73-2.808z"/>
        <path d="m1304.5 804.16h0.85c-0.39 1.448-0.82 2.653-1.29 3.613s-1.13 1.961-1.96 3.003c-3.3 4.069-7.72 6.104-13.25 6.104-3.49 0-6.73-0.81-9.74-2.43-3.01-1.619-5.41-3.8-7.18-6.543-1.78-2.742-2.66-5.7-2.66-8.874 0-1.888 0.35-3.764 1.05-5.628 0.7-1.863 1.72-3.605 3.06-5.224 1.34-1.62 2.9-3.007 4.68-4.163 2.68-1.758 5.78-2.636 9.3-2.636 1.17 0 2.28 0.101 3.33 0.305 1.05 0.203 2.04 0.529 2.98 0.976 0.93 0.448 1.9 1.038 2.89 1.77 1.11 0.765 1.92 1.148 2.44 1.148 1.16 0 2.61-1.205 4.35-3.614h0.85l0.71 16.407h-0.8c-0.28-1.188-0.54-2.157-0.8-2.906-0.25-0.748-0.59-1.53-1.01-2.343-1.12-2.295-2.45-4.265-3.98-5.909-1.53-1.643-3.2-2.897-5-3.759-1.81-0.863-3.67-1.294-5.57-1.294-2.28 0-4.14 0.606-5.57 1.819-1.43 1.212-2.49 3.1-3.18 5.664-0.7 2.563-1.04 5.822-1.04 9.777 0 2.279 0.12 4.297 0.37 6.055 0.24 1.758 0.62 3.243 1.13 4.456 0.51 1.212 1.16 2.225 1.94 3.039 0.96 0.977 2.13 1.721 3.5 2.234 1.38 0.513 2.88 0.769 4.51 0.769 1.51 0 2.96-0.195 4.36-0.586 1.39-0.39 2.69-0.972 3.9-1.745s2.33-1.73 3.34-2.869c0.81-0.944 1.47-1.892 1.97-2.844 0.51-0.952 1.01-2.21 1.52-3.772z"/>
        <path d="m1307 782.07h36.27v13.208h-0.73c-0.66-2.311-1.26-4.04-1.79-5.188-0.53-1.147-1.22-2.234-2.07-3.259-1.02-1.221-2.14-2.092-3.34-2.612-2-0.831-4.44-1.246-7.3-1.246h-6.71v16.211h1.8c2.69 0 4.82-1.155 6.4-3.466 0.81-1.189 1.41-2.605 1.81-4.248 0.19-0.7 0.37-1.734 0.53-3.101h0.86v22.363h-0.86c-0.19-1.204-0.42-2.339-0.69-3.406-0.27-1.066-0.57-1.932-0.91-2.6-0.33-0.667-0.76-1.334-1.28-2.002-1.46-1.806-3.55-2.71-6.25-2.71h-1.41v15.259h5.61c1.66 0 3.16-0.118 4.48-0.354 1.33-0.236 2.52-0.602 3.58-1.098 1.06-0.497 2.05-1.144 2.98-1.941 1.59-1.351 2.83-3.036 3.71-5.054 0.5-1.156 1.03-2.718 1.58-4.688h0.91v14.039h-37.14l-0.04-0.904h0.92c4.14 0 6.2-2.083 6.2-6.25v-19.848c0-2.116-0.5-3.679-1.51-4.688s-2.57-1.514-4.69-1.514h-0.92v-0.903z"/>
        <path d="m1345.5 782.07h13.69l23.71 24.561v-14.698c0-1.79-0.31-3.357-0.91-4.699-0.62-1.343-1.5-2.364-2.65-3.064-0.62-0.391-1.25-0.668-1.87-0.83-0.63-0.163-1.5-0.285-2.63-0.367v-0.903h16.9v0.903h-0.34c-2.46 0-4.33 0.782-5.62 2.344-1.28 1.563-1.93 3.833-1.93 6.812v24.389h-0.8l-29.45-30.249v20.264c0 1.969 0.24 3.544 0.71 4.724s1.24 2.104 2.3 2.771c0.86 0.521 1.91 0.855 3.15 1.001 0.68 0.114 1.66 0.195 2.93 0.244v0.904h-17.8v-0.904c1.82-0.097 3.31-0.419 4.45-0.964 1.15-0.545 2-1.355 2.54-2.429 0.55-1.075 0.82-2.409 0.82-4.004v-19.287c0-1.189-0.26-2.198-0.79-3.028s-1.3-1.469-2.31-1.916c-1.01-0.448-2.23-0.672-3.66-0.672h-0.44v-0.903z"/>
        <path d="m1391.4 782.07h39.99v17.31l-0.78 0.048c-0.41-4.329-1.71-8.048-3.91-11.157-2.6-3.532-5.9-5.298-9.91-5.298h-1.78v26.05c0 4.134 2.06 6.201 6.18 6.201h5.15v0.953h-29.79v-0.953h5.1c4.14 0 6.21-2.067 6.21-6.201v-26.05h-2.2c-4.07 0-7.37 1.905-9.91 5.713-1.26 1.872-2.21 4.102-2.86 6.69-0.21 0.879-0.42 2.213-0.63 4.004h-0.86v-17.31z"/>
        <path d="m1446.2 789.37-6.69 15.21h13.55l-6.86-15.21zm2.59-7.983h0.9l13.72 29.833c0.44 0.928 0.93 1.693 1.48 2.295 0.54 0.603 1.16 1.038 1.84 1.307 0.68 0.268 1.49 0.402 2.42 0.402h0.9v0.953h-19.8v-0.953h2.59c1.28 0 2.22-0.175 2.82-0.525 0.59-0.349 0.89-0.891 0.89-1.623 0-0.456-0.12-1.009-0.35-1.66-0.24-0.651-0.76-1.831-1.56-3.54-0.04-0.098-0.12-0.261-0.22-0.489-0.09-0.227-0.2-0.447-0.31-0.659l-0.56-1.245h-14.46l-1.1 2.539c-0.35 0.863-0.53 1.734-0.53 2.613 0 0.748 0.2 1.489 0.62 2.221 0.42 0.733 0.96 1.286 1.62 1.66 0.44 0.261 0.84 0.436 1.19 0.525 0.35 0.09 0.85 0.151 1.5 0.183v0.953h-13.89v-0.953c1.01-0.114 1.81-0.293 2.4-0.537 0.6-0.244 1.26-0.651 1.99-1.22 1.73-1.335 3.41-3.85 5.06-7.544l10.84-24.536z"/>
        <path d="m1469.8 782.07h23.26v0.903h-2.46c-2.1 0-3.66 0.505-4.67 1.514s-1.51 2.572-1.51 4.688v26.098h8.84c1.74 0 3.38-0.386 4.93-1.159 1.54-0.774 2.89-1.852 4.03-3.235 0.68-0.863 1.28-1.717 1.8-2.564 0.53-0.846 1.02-1.872 1.49-3.076s0.94-2.588 1.4-4.15h0.9v15.088h-38.01l-0.05-0.904h1.27c4.13 0 6.2-2.083 6.2-6.25v-19.848c0-4.135-2.07-6.202-6.2-6.202h-1.22v-0.903z"/>
    </g>
    <g transform="matrix(.39875 0 0 .39875 -62.513 -56.059)">
        <g transform="matrix(.47389 0 0 .47389 -333.99 -1125.1)">
            <path d="m1242.8 3047.5c-44.13-8.21-77.85-33.47-102.3-67.17-10.97-15.11-17.75-32.18-23.3-50.31-5.02-16.41-7.34-33.8-6.23-51.99-0.38-10.67 0.53-21.04 2.22-31.13 1.81-10.74 3.57-21.19 7.25-31.17 5.25-14.29 11.22-27.79 20.03-40.03 24.33-33.79 58.2-58.95 102.33-67.14-34.72-6.74-67.28-2.44-98 9.57-14.35 5.61-26.94 13.52-39.29 22.61-17.76 13.06-31.91 29.73-44.04 48.42-8.13 12.54-14.14 26.29-18.7 40.87-4.75 15.18-6.48 31.41-7.08 48 1.71 27.83 7.16 54.54 19.52 77.72 12.54 23.53 29.02 44.18 50.27 59.59 38.84 28.18 86.47 41.62 137.32 32.16z" fill="#fff"/>
        </g>
        <g transform="matrix(.47389 0 0 .47389 -286.05 -1125.1)">
            <path d="m1242.8 3047.5c-93.53 0-169.47-75.94-169.47-169.47 0-93.54 75.94-169.47 169.47-169.47" fill="#fff"/>
        </g>
        <g transform="matrix(5.9783e-18 .097633 -.097633 5.9783e-18 642.2 97.685)">
            <circle cx="1445.1" cy="4132.1" r="165.76" fill="#fff"/>
        </g>
        <g transform="matrix(5.9783e-18 .097633 -.097633 5.9783e-18 688.36 97.685)">
            <circle cx="1445.1" cy="4132.1" r="165.76" fill="#fff"/>
        </g>
    </g>
</svg>
